<svg width="152" height="39" viewBox="0 0 152 39" fill="none" xmlns="http://www.w3.org/2000/svg">
<path d="M15.6094 26.3027C15.6094 25.8457 15.5391 25.4355 15.3984 25.0723C15.2695 24.6973 15.0234 24.3574 14.6602 24.0527C14.2969 23.7363 13.7871 23.4258 13.1309 23.1211C12.4746 22.8164 11.625 22.5 10.582 22.1719C9.42188 21.7969 8.32031 21.375 7.27734 20.9062C6.24609 20.4375 5.33203 19.8926 4.53516 19.2715C3.75 18.6387 3.12891 17.9062 2.67188 17.0742C2.22656 16.2422 2.00391 15.2754 2.00391 14.1738C2.00391 13.1074 2.23828 12.1406 2.70703 11.2734C3.17578 10.3945 3.83203 9.64453 4.67578 9.02344C5.51953 8.39062 6.51562 7.9043 7.66406 7.56445C8.82422 7.22461 10.0957 7.05469 11.4785 7.05469C13.3652 7.05469 15.0117 7.39453 16.418 8.07422C17.8242 8.75391 18.9141 9.68555 19.6875 10.8691C20.4727 12.0527 20.8652 13.4062 20.8652 14.9297H15.627C15.627 14.1797 15.4688 13.5234 15.1523 12.9609C14.8477 12.3867 14.3789 11.9355 13.7461 11.6074C13.125 11.2793 12.3398 11.1152 11.3906 11.1152C10.4766 11.1152 9.71484 11.2559 9.10547 11.5371C8.49609 11.8066 8.03906 12.1758 7.73438 12.6445C7.42969 13.1016 7.27734 13.6172 7.27734 14.1914C7.27734 14.625 7.38281 15.0176 7.59375 15.3691C7.81641 15.7207 8.14453 16.0488 8.57812 16.3535C9.01172 16.6582 9.54492 16.9453 10.1777 17.2148C10.8105 17.4844 11.543 17.748 12.375 18.0059C13.7695 18.4277 14.9941 18.9023 16.0488 19.4297C17.1152 19.957 18.0059 20.5488 18.7207 21.2051C19.4355 21.8613 19.9746 22.6055 20.3379 23.4375C20.7012 24.2695 20.8828 25.2129 20.8828 26.2676C20.8828 27.3809 20.666 28.377 20.2324 29.2559C19.7988 30.1348 19.1719 30.8789 18.3516 31.4883C17.5312 32.0977 16.5527 32.5605 15.416 32.877C14.2793 33.1934 13.0078 33.3516 11.6016 33.3516C10.3359 33.3516 9.08789 33.1875 7.85742 32.8594C6.62695 32.5195 5.50781 32.0098 4.5 31.3301C3.50391 30.6504 2.70703 29.7832 2.10938 28.7285C1.51172 27.6738 1.21289 26.4258 1.21289 24.9844H6.50391C6.50391 25.7812 6.62695 26.4551 6.87305 27.0059C7.11914 27.5566 7.46484 28.002 7.91016 28.3418C8.36719 28.6816 8.90625 28.9277 9.52734 29.0801C10.1602 29.2324 10.8516 29.3086 11.6016 29.3086C12.5156 29.3086 13.2656 29.1797 13.8516 28.9219C14.4492 28.6641 14.8887 28.3066 15.1699 27.8496C15.4629 27.3926 15.6094 26.877 15.6094 26.3027ZM23.3438 23.6836V23.3145C23.3438 21.9199 23.543 20.6367 23.9414 19.4648C24.3398 18.2812 24.9199 17.2559 25.6816 16.3887C26.4434 15.5215 27.3809 14.8477 28.4941 14.3672C29.6074 13.875 30.8848 13.6289 32.3262 13.6289C33.7676 13.6289 35.0508 13.875 36.1758 14.3672C37.3008 14.8477 38.2441 15.5215 39.0059 16.3887C39.7793 17.2559 40.3652 18.2812 40.7637 19.4648C41.1621 20.6367 41.3613 21.9199 41.3613 23.3145V23.6836C41.3613 25.0664 41.1621 26.3496 40.7637 27.5332C40.3652 28.7051 39.7793 29.7305 39.0059 30.6094C38.2441 31.4766 37.3066 32.1504 36.1934 32.6309C35.0801 33.1113 33.8027 33.3516 32.3613 33.3516C30.9199 33.3516 29.6367 33.1113 28.5117 32.6309C27.3984 32.1504 26.4551 31.4766 25.6816 30.6094C24.9199 29.7305 24.3398 28.7051 23.9414 27.5332C23.543 26.3496 23.3438 25.0664 23.3438 23.6836ZM28.4062 23.3145V23.6836C28.4062 24.4805 28.4766 25.2246 28.6172 25.916C28.7578 26.6074 28.9805 27.2168 29.2852 27.7441C29.6016 28.2598 30.0117 28.6641 30.5156 28.957C31.0195 29.25 31.6348 29.3965 32.3613 29.3965C33.0645 29.3965 33.668 29.25 34.1719 28.957C34.6758 28.6641 35.0801 28.2598 35.3848 27.7441C35.6895 27.2168 35.9121 26.6074 36.0527 25.916C36.2051 25.2246 36.2812 24.4805 36.2812 23.6836V23.3145C36.2812 22.541 36.2051 21.8145 36.0527 21.1348C35.9121 20.4434 35.6836 19.834 35.3672 19.3066C35.0625 18.7676 34.6582 18.3457 34.1543 18.041C33.6504 17.7363 33.041 17.584 32.3262 17.584C31.6113 17.584 31.002 17.7363 30.498 18.041C30.0059 18.3457 29.6016 18.7676 29.2852 19.3066C28.9805 19.834 28.7578 20.4434 28.6172 21.1348C28.4766 21.8145 28.4062 22.541 28.4062 23.3145ZM52.3301 29.3965C52.9512 29.3965 53.502 29.2793 53.9824 29.0449C54.4629 28.7988 54.8379 28.459 55.1074 28.0254C55.3887 27.5801 55.5352 27.0586 55.5469 26.4609H60.3105C60.2988 27.7969 59.9414 28.9863 59.2383 30.0293C58.5352 31.0605 57.5918 31.875 56.4082 32.4727C55.2246 33.0586 53.9004 33.3516 52.4355 33.3516C50.959 33.3516 49.6699 33.1055 48.5684 32.6133C47.4785 32.1211 46.5703 31.4414 45.8438 30.5742C45.1172 29.6953 44.5723 28.6758 44.209 27.5156C43.8457 26.3438 43.6641 25.0898 43.6641 23.7539V23.2441C43.6641 21.8965 43.8457 20.6426 44.209 19.4824C44.5723 18.3105 45.1172 17.291 45.8438 16.4238C46.5703 15.5449 47.4785 14.8594 48.5684 14.3672C49.6582 13.875 50.9355 13.6289 52.4004 13.6289C53.959 13.6289 55.3242 13.9277 56.4961 14.5254C57.6797 15.123 58.6055 15.9785 59.2734 17.0918C59.9531 18.1934 60.2988 19.5 60.3105 21.0117H55.5469C55.5352 20.3789 55.4004 19.8047 55.1426 19.2891C54.8965 18.7734 54.5332 18.3633 54.0527 18.0586C53.584 17.7422 53.0039 17.584 52.3125 17.584C51.5742 17.584 50.9707 17.7422 50.502 18.0586C50.0332 18.3633 49.6699 18.7852 49.4121 19.3242C49.1543 19.8516 48.9727 20.4551 48.8672 21.1348C48.7734 21.8027 48.7266 22.5059 48.7266 23.2441V23.7539C48.7266 24.4922 48.7734 25.2012 48.8672 25.8809C48.9609 26.5605 49.1367 27.1641 49.3945 27.6914C49.6641 28.2188 50.0332 28.6348 50.502 28.9395C50.9707 29.2441 51.5801 29.3965 52.3301 29.3965ZM68.5898 13.9805V33H63.5098V13.9805H68.5898ZM63.1934 9.02344C63.1934 8.28516 63.4512 7.67578 63.9668 7.19531C64.4824 6.71484 65.1738 6.47461 66.041 6.47461C66.8965 6.47461 67.582 6.71484 68.0977 7.19531C68.625 7.67578 68.8887 8.28516 68.8887 9.02344C68.8887 9.76172 68.625 10.3711 68.0977 10.8516C67.582 11.332 66.8965 11.5723 66.041 11.5723C65.1738 11.5723 64.4824 11.332 63.9668 10.8516C63.4512 10.3711 63.1934 9.76172 63.1934 9.02344ZM83.0391 28.7109V20.2383C83.0391 19.6289 82.9395 19.1074 82.7402 18.6738C82.541 18.2285 82.2305 17.8828 81.8086 17.6367C81.3984 17.3906 80.8652 17.2676 80.209 17.2676C79.6465 17.2676 79.1602 17.3672 78.75 17.5664C78.3398 17.7539 78.0234 18.0293 77.8008 18.3926C77.5781 18.7441 77.4668 19.1602 77.4668 19.6406H72.4043C72.4043 18.832 72.5918 18.0645 72.9668 17.3379C73.3418 16.6113 73.8867 15.9727 74.6016 15.4219C75.3164 14.8594 76.166 14.4199 77.1504 14.1035C78.1465 13.7871 79.2598 13.6289 80.4902 13.6289C81.9668 13.6289 83.2793 13.875 84.4277 14.3672C85.5762 14.8594 86.4785 15.5977 87.1348 16.582C87.8027 17.5664 88.1367 18.7969 88.1367 20.2734V28.4121C88.1367 29.4551 88.2012 30.3105 88.3301 30.9785C88.459 31.6348 88.6465 32.209 88.8926 32.7012V33H83.7773C83.5312 32.4844 83.3438 31.8398 83.2148 31.0664C83.0977 30.2812 83.0391 29.4961 83.0391 28.7109ZM83.707 21.416L83.7422 24.2812H80.9121C80.2441 24.2812 79.6641 24.3574 79.1719 24.5098C78.6797 24.6621 78.2754 24.8789 77.959 25.1602C77.6426 25.4297 77.4082 25.7461 77.2559 26.1094C77.1152 26.4727 77.0449 26.8711 77.0449 27.3047C77.0449 27.7383 77.1445 28.1309 77.3438 28.4824C77.543 28.8223 77.8301 29.0918 78.2051 29.291C78.5801 29.4785 79.0195 29.5723 79.5234 29.5723C80.2852 29.5723 80.9473 29.4199 81.5098 29.1152C82.0723 28.8105 82.5059 28.4355 82.8105 27.9902C83.127 27.5449 83.291 27.123 83.3027 26.7246L84.6387 28.8691C84.4512 29.3496 84.1934 29.8477 83.8652 30.3633C83.5488 30.8789 83.1445 31.3652 82.6523 31.8223C82.1602 32.2676 81.5684 32.6367 80.877 32.9297C80.1855 33.2109 79.3652 33.3516 78.416 33.3516C77.209 33.3516 76.1133 33.1113 75.1289 32.6309C74.1562 32.1387 73.3828 31.4648 72.8086 30.6094C72.2461 29.7422 71.9648 28.7578 71.9648 27.6562C71.9648 26.6602 72.1523 25.7754 72.5273 25.002C72.9023 24.2285 73.4531 23.5781 74.1797 23.0508C74.918 22.5117 75.8379 22.1074 76.9395 21.8379C78.041 21.5566 79.3184 21.416 80.7715 21.416H83.707ZM97.3828 6V33H92.3027V6H97.3828Z" fill="#5D5FEF"/>
<path d="M112 12.8C112 8.31958 112 6.07937 112.872 4.36808C113.639 2.86278 114.863 1.63893 116.368 0.871948C118.079 0 120.32 0 124.8 0H139.2C143.68 0 145.921 0 147.632 0.871948C149.137 1.63893 150.361 2.86278 151.128 4.36808C152 6.07937 152 8.31958 152 12.8V25.4222C152 29.9026 152 32.1429 151.128 33.8541C150.361 35.3594 149.137 36.5833 147.632 37.3503C145.921 38.2222 143.68 38.2222 139.2 38.2222H124.8C120.32 38.2222 118.079 38.2222 116.368 37.3503C114.863 36.5833 113.639 35.3594 112.872 33.8541C112 32.1429 112 29.9026 112 25.4222V12.8Z" fill="#5D5FEF"/>
<path d="M119.344 16.8052V26.7778H115.969V14.0981H119.133L119.344 16.8052ZM118.852 19.9927H117.938C117.938 19.0552 118.059 18.2114 118.301 17.4614C118.543 16.7036 118.883 16.0591 119.32 15.5278C119.758 14.9888 120.277 14.5786 120.879 14.2974C121.488 14.0083 122.168 13.8638 122.918 13.8638C123.512 13.8638 124.055 13.9497 124.547 14.1216C125.039 14.2935 125.461 14.5669 125.812 14.9419C126.172 15.3169 126.445 15.813 126.633 16.4302C126.828 17.0474 126.926 17.8013 126.926 18.6919V26.7778H123.527V18.6802C123.527 18.1177 123.449 17.6802 123.293 17.3677C123.137 17.0552 122.906 16.8364 122.602 16.7114C122.305 16.5786 121.938 16.5122 121.5 16.5122C121.047 16.5122 120.652 16.6021 120.316 16.7817C119.988 16.9614 119.715 17.2114 119.496 17.5317C119.285 17.8442 119.125 18.2114 119.016 18.6333C118.906 19.0552 118.852 19.5083 118.852 19.9927ZM135.328 27.0122C134.344 27.0122 133.461 26.856 132.68 26.5435C131.898 26.2231 131.234 25.7817 130.688 25.2192C130.148 24.6567 129.734 24.0044 129.445 23.2622C129.156 22.5122 129.012 21.7153 129.012 20.8716V20.4028C129.012 19.4419 129.148 18.563 129.422 17.7661C129.695 16.9692 130.086 16.2778 130.594 15.6919C131.109 15.106 131.734 14.6567 132.469 14.3442C133.203 14.0239 134.031 13.8638 134.953 13.8638C135.852 13.8638 136.648 14.0122 137.344 14.3091C138.039 14.606 138.621 15.0278 139.09 15.5747C139.566 16.1216 139.926 16.7778 140.168 17.5435C140.41 18.3013 140.531 19.145 140.531 20.0747V21.481H130.453V19.231H137.215V18.9731C137.215 18.5044 137.129 18.0864 136.957 17.7192C136.793 17.3442 136.543 17.0474 136.207 16.8286C135.871 16.6099 135.441 16.5005 134.918 16.5005C134.473 16.5005 134.09 16.5981 133.77 16.7935C133.449 16.9888 133.188 17.2622 132.984 17.6138C132.789 17.9653 132.641 18.3794 132.539 18.856C132.445 19.3247 132.398 19.8403 132.398 20.4028V20.8716C132.398 21.3794 132.469 21.8481 132.609 22.2778C132.758 22.7075 132.965 23.0786 133.23 23.3911C133.504 23.7036 133.832 23.9458 134.215 24.1177C134.605 24.2896 135.047 24.3755 135.539 24.3755C136.148 24.3755 136.715 24.2583 137.238 24.0239C137.77 23.7817 138.227 23.4185 138.609 22.9341L140.25 24.7153C139.984 25.0981 139.621 25.4653 139.16 25.8169C138.707 26.1685 138.16 26.4575 137.52 26.6841C136.879 26.9028 136.148 27.0122 135.328 27.0122ZM148.664 14.0981V16.4888H141.281V14.0981H148.664ZM143.109 10.9692H146.484V22.9575C146.484 23.3247 146.531 23.606 146.625 23.8013C146.727 23.9966 146.875 24.1333 147.07 24.2114C147.266 24.2817 147.512 24.3169 147.809 24.3169C148.02 24.3169 148.207 24.3091 148.371 24.2935C148.543 24.27 148.688 24.2466 148.805 24.2231L148.816 26.7075C148.527 26.8013 148.215 26.8755 147.879 26.9302C147.543 26.9849 147.172 27.0122 146.766 27.0122C146.023 27.0122 145.375 26.8911 144.82 26.6489C144.273 26.3989 143.852 26.0005 143.555 25.4536C143.258 24.9067 143.109 24.188 143.109 23.2974V10.9692Z" fill="white"/>
</svg>
